<svg width="22" height="31" viewBox="0 0 22 31" fill="none" xmlns="http://www.w3.org/2000/svg">
<path d="M5.75546 2.56277C6.38074 0.290619 1.14021 -0.532562 1.55711 7.41995C1.55711 7.41995 1.7096 14.8407 1.29273 17.4536C0.875859 20.0666 0.746679 22.8141 1.99239 25.815C2.57088 27.2086 3.93653 27.766 3.93653 27.766C5.52278 28.6022 12.9253 29.9958 16.0978 29.9958C16.0978 29.9958 17.7708 30.1306 20.0634 28.8809C22.3561 27.6312 20.2413 25.7386 19.7202 24.9434C19.1991 24.1481 20.8153 21.8555 20.9708 21.1943C22.1784 16.0601 19.616 13.2418 17.2191 11.6514C17.2191 11.6514 13.1548 9.03838 8.67356 11.8786C4.19235 14.7188 5.25839 16.3388 4.46526 16.8962C3.67213 16.3388 4.72962 10.3922 4.72962 8.12954C5.35491 5.63017 6.74955 7.3342 6.7496 6.19821C6.7496 6.19821 6.64539 4.94852 5.08218 5.17572C4.12328 5.31509 5.75546 2.56277 5.75546 2.56277Z" fill="#626262" stroke="black"/>
<path d="M17.5253 18.0616C17.2352 19.1109 16.3309 19.7491 15.5055 19.4871C14.6801 19.2251 14.2461 18.162 14.5362 17.1127C14.8263 16.0634 15.7307 15.4252 16.5561 15.6872C17.3815 15.9492 17.8154 17.0123 17.5253 18.0616Z" fill="#F1F1F1"/>
<path d="M17.5253 18.0616C17.2352 19.1109 16.3309 19.7491 15.5055 19.4871C14.6801 19.2251 14.2461 18.162 14.5362 17.1127C14.8263 16.0634 15.7307 15.4252 16.5561 15.6872C17.3815 15.9492 17.8154 17.0123 17.5253 18.0616Z" fill="#F1F1F1"/>
<path d="M17.5253 18.0616C17.2352 19.1109 16.3309 19.7491 15.5055 19.4871C14.6801 19.2251 14.2461 18.162 14.5362 17.1127C14.8263 16.0634 15.7307 15.4252 16.5561 15.6872C17.3815 15.9492 17.8154 17.0123 17.5253 18.0616Z" stroke="black"/>
<path d="M12.654 16.1468C12.3665 17.1867 11.432 17.807 10.5667 17.5323C9.70135 17.2576 9.23295 16.1919 9.52045 15.1521C9.80795 14.1122 10.7425 13.4919 11.6078 13.7666C12.4731 14.0413 12.9415 15.1069 12.654 16.1468Z" fill="#F1F1F1"/>
<path d="M12.654 16.1468C12.3665 17.1867 11.432 17.807 10.5667 17.5323C9.70135 17.2576 9.23295 16.1919 9.52045 15.1521C9.80795 14.1122 10.7425 13.4919 11.6078 13.7666C12.4731 14.0413 12.9415 15.1069 12.654 16.1468Z" fill="#F1F1F1"/>
<path d="M12.654 16.1468C12.3665 17.1867 11.432 17.807 10.5667 17.5323C9.70135 17.2576 9.23295 16.1919 9.52045 15.1521C9.80795 14.1122 10.7425 13.4919 11.6078 13.7666C12.4731 14.0413 12.9415 15.1069 12.654 16.1468Z" stroke="black"/>
<path d="M11.4042 20.927C14.7402 20.2346 15.3229 21.5894 15.3134 22.5386C14.8295 24.8718 11.05 24.6885 11.05 24.6885C11.05 24.6885 6.53223 24.2715 7.30685 20.5576C8.61193 18.6218 10.6547 21.1562 11.4042 20.927Z" fill="#F1F1F1"/>
<path d="M11.4042 20.927C14.7402 20.2346 15.3229 21.5894 15.3134 22.5386C14.8295 24.8718 11.05 24.6885 11.05 24.6885C11.05 24.6885 6.53223 24.2715 7.30685 20.5576C8.61193 18.6218 10.6547 21.1562 11.4042 20.927Z" fill="#F1F1F1"/>
<path d="M11.4042 20.927C14.7402 20.2346 15.3229 21.5894 15.3134 22.5386C14.8295 24.8718 11.05 24.6885 11.05 24.6885C11.05 24.6885 6.53223 24.2715 7.30685 20.5576C8.61193 18.6218 10.6547 21.1562 11.4042 20.927Z" stroke="black"/>
</svg>
