<svg width="21" height="29" viewBox="0 0 21 29" fill="none" xmlns="http://www.w3.org/2000/svg">
<path d="M5.45542 2.45499C6.04125 0.339541 1.13137 -0.426868 1.52197 6.97719C1.52197 6.97719 1.66484 13.8861 1.27427 16.3189C0.883702 18.7517 0.762672 21.3097 1.92979 24.1037C2.47177 25.4011 3.75126 25.9201 3.75126 25.9201C5.23742 26.6986 12.1729 27.996 15.1452 27.996C15.1452 27.996 16.7126 28.1216 18.8606 26.9581C21.0086 25.7946 19.0273 24.0325 18.5391 23.2921C18.0509 22.5517 19.565 20.4172 19.7107 19.8016C20.8422 15.0214 18.4414 12.3975 16.1957 10.9168C16.1957 10.9168 12.3879 8.48401 8.1894 11.1283C3.99094 13.7726 4.98971 15.2809 4.24663 15.7999C3.50354 15.2809 4.49431 9.74449 4.49431 7.63784C5.08014 5.31085 6.38679 6.89736 6.38684 5.83971C6.38684 5.83971 6.2892 4.67621 4.82462 4.88774C3.92622 5.0175 5.45542 2.45499 5.45542 2.45499Z" stroke="black"/>
</svg>
