<svg width="27" height="22" viewBox="0 0 27 22" fill="none" xmlns="http://www.w3.org/2000/svg">
<path d="M14.2635 1.57345C11.3339 0.676691 6.85087 0.0843786 2.68124 5.79245C2.68124 5.79245 -1.10151 12.6664 2.68118 17.9531C6.40171 23.153 16.8114 20.4349 17.9697 19.6904C19.1279 18.9459 22.4697 20.3615 26.5405 21.4276C26.5405 21.4276 22.1393 18.6977 21.4443 16.7123C21.4443 16.7123 24.6874 14.2305 24.2241 10.5079C23.5292 6.28884 15.885 2.06981 14.2635 1.57345Z" fill="#626262" stroke="black"/>
<path d="M8.43591 11.5005C8.43591 12.2169 7.90188 12.7378 7.31439 12.7378C6.7269 12.7378 6.19287 12.2169 6.19287 11.5005C6.19287 10.7842 6.7269 10.2633 7.31439 10.2633C7.90188 10.2633 8.43591 10.7842 8.43591 11.5005Z" fill="#F1F1F1" stroke="black"/>
<path d="M18.628 11.5005C18.628 12.2169 18.094 12.7378 17.5065 12.7378C16.919 12.7378 16.385 12.2169 16.385 11.5005C16.385 10.7842 16.919 10.2633 17.5065 10.2633C18.094 10.2633 18.628 10.7842 18.628 11.5005Z" fill="#F1F1F1" stroke="black"/>
<path d="M13.5319 11.5005C13.5319 12.2169 12.9978 12.7378 12.4103 12.7378C11.8228 12.7378 11.2888 12.2169 11.2888 11.5005C11.2888 10.7842 11.8228 10.2633 12.4103 10.2633C12.9978 10.2633 13.5319 10.7842 13.5319 11.5005Z" fill="#F1F1F1" stroke="black"/>
</svg>
