<svg xmlns="http://www.w3.org/2000/svg" xmlns:xlink="http://www.w3.org/1999/xlink" width="500" zoomAndPan="magnify" viewBox="0 0 375 374.999991" height="500" preserveAspectRatio="xMidYMid meet" version="1.0"><defs><g/></defs><g fill="#ff5757" fill-opacity="1"><g transform="translate(13.995519, 229.878263)"><g><path d="M 4.671875 -51.296875 C 4.671875 -53.085938 4.726562 -54.429688 4.84375 -55.328125 C 4.96875 -56.222656 5.300781 -57.257812 5.84375 -58.4375 C 6.9375 -60.457031 9.972656 -61.46875 14.953125 -61.46875 C 18.691406 -61.46875 21.34375 -60.804688 22.90625 -59.484375 C 24.226562 -58.390625 24.929688 -56.710938 25.015625 -54.453125 C 25.085938 -53.671875 25.125 -52.539062 25.125 -51.0625 L 25.125 -10.171875 C 25.125 -8.378906 25.066406 -7.035156 24.953125 -6.140625 C 24.835938 -5.242188 24.46875 -4.207031 23.84375 -3.03125 C 22.820312 -1.007812 19.820312 0 14.84375 0 C 9.9375 0 6.9375 -1.050781 5.84375 -3.15625 C 5.300781 -4.320312 4.96875 -5.332031 4.84375 -6.1875 C 4.726562 -7.050781 4.671875 -8.414062 4.671875 -10.28125 Z M 23.890625 -72.96875 C 23.304688 -71.84375 22.273438 -71.046875 20.796875 -70.578125 C 19.316406 -70.109375 17.347656 -69.875 14.890625 -69.875 C 12.441406 -69.875 10.476562 -70.109375 9 -70.578125 C 7.519531 -71.046875 6.488281 -71.863281 5.90625 -73.03125 C 5.320312 -74.207031 4.96875 -75.242188 4.84375 -76.140625 C 4.726562 -77.035156 4.671875 -78.378906 4.671875 -80.171875 C 4.671875 -81.960938 4.726562 -83.304688 4.84375 -84.203125 C 4.96875 -85.097656 5.300781 -86.085938 5.84375 -87.171875 C 6.9375 -89.273438 9.972656 -90.328125 14.953125 -90.328125 C 19.859375 -90.328125 22.820312 -89.273438 23.84375 -87.171875 C 24.46875 -86.003906 24.835938 -84.972656 24.953125 -84.078125 C 25.066406 -83.179688 25.125 -81.835938 25.125 -80.046875 C 25.125 -78.253906 25.066406 -76.910156 24.953125 -76.015625 C 24.835938 -75.117188 24.484375 -74.101562 23.890625 -72.96875 Z M 23.890625 -72.96875 "/></g></g></g><g fill="#121212" fill-opacity="1"><g transform="translate(41.471544, 229.878263)"><g><path d="M 5.953125 -12.03125 C 3.929688 -14.53125 2.921875 -16.769531 2.921875 -18.75 C 2.921875 -20.738281 4.597656 -23.367188 7.953125 -26.640625 C 9.898438 -28.515625 11.960938 -29.453125 14.140625 -29.453125 C 16.316406 -29.453125 19.351562 -27.503906 23.25 -23.609375 C 24.34375 -22.285156 25.898438 -21.019531 27.921875 -19.8125 C 29.953125 -18.601562 31.820312 -18 33.53125 -18 C 40.78125 -18 44.40625 -20.957031 44.40625 -26.875 C 44.40625 -28.664062 43.410156 -30.164062 41.421875 -31.375 C 39.441406 -32.582031 36.96875 -33.457031 34 -34 C 31.039062 -34.550781 27.847656 -35.429688 24.421875 -36.640625 C 20.992188 -37.847656 17.800781 -39.269531 14.84375 -40.90625 C 11.882812 -42.539062 9.410156 -45.128906 7.421875 -48.671875 C 5.429688 -52.210938 4.4375 -56.476562 4.4375 -61.46875 C 4.4375 -68.320312 6.988281 -74.300781 12.09375 -79.40625 C 17.195312 -84.507812 24.148438 -87.0625 32.953125 -87.0625 C 37.628906 -87.0625 41.894531 -86.457031 45.75 -85.25 C 49.601562 -84.039062 52.269531 -82.8125 53.75 -81.5625 L 56.671875 -79.34375 C 59.085938 -77.082031 60.296875 -75.171875 60.296875 -73.609375 C 60.296875 -72.054688 59.363281 -69.914062 57.5 -67.1875 C 54.84375 -63.289062 52.113281 -61.34375 49.3125 -61.34375 C 47.675781 -61.34375 45.648438 -62.125 43.234375 -63.6875 C 43.003906 -63.84375 42.554688 -64.234375 41.890625 -64.859375 C 41.234375 -65.484375 40.628906 -65.988281 40.078125 -66.375 C 38.441406 -67.382812 36.359375 -67.890625 33.828125 -67.890625 C 31.296875 -67.890625 29.191406 -67.285156 27.515625 -66.078125 C 25.847656 -64.867188 25.015625 -63.191406 25.015625 -61.046875 C 25.015625 -58.910156 26.003906 -57.179688 27.984375 -55.859375 C 29.972656 -54.535156 32.445312 -53.640625 35.40625 -53.171875 C 38.363281 -52.703125 41.59375 -51.976562 45.09375 -51 C 48.601562 -50.03125 51.835938 -48.84375 54.796875 -47.4375 C 57.765625 -46.039062 60.238281 -43.609375 62.21875 -40.140625 C 64.207031 -36.671875 65.203125 -32.40625 65.203125 -27.34375 C 65.203125 -22.28125 64.1875 -17.820312 62.15625 -13.96875 C 60.132812 -10.113281 57.488281 -7.132812 54.21875 -5.03125 C 47.90625 -0.894531 41.164062 1.171875 34 1.171875 C 30.34375 1.171875 26.878906 0.722656 23.609375 -0.171875 C 20.335938 -1.066406 17.6875 -2.175781 15.65625 -3.5 C 11.53125 -6 8.648438 -8.414062 7.015625 -10.75 Z M 5.953125 -12.03125 "/></g></g></g><g fill="#121212" fill-opacity="1"><g transform="translate(107.263781, 229.878263)"><g><path d="M 38.796875 -61.34375 C 46.585938 -61.34375 53.070312 -58.382812 58.25 -52.46875 C 63.4375 -46.550781 66.03125 -39.304688 66.03125 -30.734375 L 66.03125 -10.171875 C 66.03125 -8.378906 65.96875 -7.035156 65.84375 -6.140625 C 65.726562 -5.242188 65.359375 -4.207031 64.734375 -3.03125 C 63.722656 -1.007812 60.722656 0 55.734375 0 C 50.984375 0 48.023438 -1.007812 46.859375 -3.03125 C 46.234375 -4.207031 45.863281 -5.257812 45.75 -6.1875 C 45.632812 -7.125 45.578125 -8.53125 45.578125 -10.40625 L 45.578125 -30.84375 C 45.578125 -34.039062 44.679688 -36.535156 42.890625 -38.328125 C 41.097656 -40.117188 38.816406 -41.015625 36.046875 -41.015625 C 33.285156 -41.015625 30.851562 -40.175781 28.75 -38.5 C 26.644531 -36.832031 25.4375 -34.945312 25.125 -32.84375 L 25.125 -10.171875 C 25.125 -8.378906 25.066406 -7.035156 24.953125 -6.140625 C 24.835938 -5.242188 24.46875 -4.207031 23.84375 -3.03125 C 22.820312 -1.007812 19.820312 0 14.84375 0 C 9.9375 0 6.9375 -1.050781 5.84375 -3.15625 C 5.300781 -4.320312 4.96875 -5.332031 4.84375 -6.1875 C 4.726562 -7.050781 4.671875 -8.414062 4.671875 -10.28125 L 4.671875 -80.171875 C 4.671875 -81.960938 4.726562 -83.304688 4.84375 -84.203125 C 4.96875 -85.097656 5.300781 -86.085938 5.84375 -87.171875 C 6.9375 -89.273438 9.972656 -90.328125 14.953125 -90.328125 C 19.859375 -90.328125 22.820312 -89.273438 23.84375 -87.171875 C 24.46875 -86.003906 24.835938 -84.972656 24.953125 -84.078125 C 25.066406 -83.179688 25.125 -81.835938 25.125 -80.046875 L 25.125 -54.21875 C 29.019531 -58.96875 33.578125 -61.34375 38.796875 -61.34375 Z M 38.796875 -61.34375 "/></g></g></g><g fill="#121212" fill-opacity="1"><g transform="translate(175.62695, 229.878263)"><g><path d="M 44.640625 -55.046875 C 45.109375 -59.398438 48.1875 -61.578125 53.875 -61.578125 C 56.914062 -61.578125 59.175781 -61.34375 60.65625 -60.875 C 62.132812 -60.414062 63.164062 -59.597656 63.75 -58.421875 C 64.332031 -57.253906 64.679688 -56.222656 64.796875 -55.328125 C 64.910156 -54.429688 64.96875 -53.085938 64.96875 -51.296875 L 64.96875 -10.40625 C 64.96875 -8.613281 64.910156 -7.269531 64.796875 -6.375 C 64.679688 -5.476562 64.351562 -4.441406 63.8125 -3.265625 C 62.71875 -1.242188 60.046875 -0.234375 55.796875 -0.234375 C 51.554688 -0.234375 48.710938 -0.757812 47.265625 -1.8125 C 45.828125 -2.863281 44.988281 -4.398438 44.75 -6.421875 C 41.875 -2.296875 37.066406 -0.234375 30.328125 -0.234375 C 23.585938 -0.234375 17.332031 -3.3125 11.5625 -9.46875 C 5.800781 -15.625 2.921875 -22.769531 2.921875 -30.90625 C 2.921875 -39.050781 5.820312 -46.179688 11.625 -52.296875 C 17.425781 -58.410156 23.796875 -61.46875 30.734375 -61.46875 C 33.378906 -61.46875 35.789062 -61 37.96875 -60.0625 C 40.15625 -59.125 41.675781 -58.242188 42.53125 -57.421875 C 43.394531 -56.609375 44.097656 -55.816406 44.640625 -55.046875 Z M 23.375 -30.734375 C 23.375 -28.160156 24.382812 -25.84375 26.40625 -23.78125 C 28.4375 -21.71875 30.890625 -20.6875 33.765625 -20.6875 C 36.648438 -20.6875 39.046875 -21.738281 40.953125 -23.84375 C 42.867188 -25.945312 43.828125 -28.265625 43.828125 -30.796875 C 43.828125 -33.328125 42.910156 -35.679688 41.078125 -37.859375 C 39.242188 -40.046875 36.785156 -41.140625 33.703125 -41.140625 C 30.628906 -41.140625 28.140625 -40.046875 26.234375 -37.859375 C 24.328125 -35.679688 23.375 -33.304688 23.375 -30.734375 Z M 23.375 -30.734375 "/></g></g></g><g fill="#121212" fill-opacity="1"><g transform="translate(242.93836, 229.878263)"><g><path d="M 46.515625 -60.875 C 47.992188 -60.414062 49.21875 -59.617188 50.1875 -58.484375 C 51.164062 -57.359375 51.65625 -55.546875 51.65625 -53.046875 C 51.65625 -50.554688 50.914062 -47.832031 49.4375 -44.875 C 47.957031 -41.914062 45.8125 -40.4375 43 -40.4375 C 41.601562 -40.4375 40.257812 -40.742188 38.96875 -41.359375 C 37.6875 -41.984375 35.992188 -42.296875 33.890625 -42.296875 C 31.785156 -42.296875 29.816406 -41.554688 27.984375 -40.078125 C 26.148438 -38.597656 25.234375 -36.804688 25.234375 -34.703125 L 25.234375 -10.171875 C 25.234375 -8.378906 25.175781 -7.035156 25.0625 -6.140625 C 24.945312 -5.242188 24.578125 -4.207031 23.953125 -3.03125 C 22.785156 -1.007812 19.75 0 14.84375 0 C 11.101562 0 8.414062 -0.660156 6.78125 -1.984375 C 5.53125 -3.078125 4.828125 -4.753906 4.671875 -7.015625 C 4.671875 -7.796875 4.671875 -8.925781 4.671875 -10.40625 L 4.671875 -51.421875 C 4.671875 -53.210938 4.726562 -54.554688 4.84375 -55.453125 C 4.96875 -56.347656 5.300781 -57.34375 5.84375 -58.4375 C 6.9375 -60.53125 9.972656 -61.578125 14.953125 -61.578125 C 19.628906 -61.578125 22.550781 -60.679688 23.71875 -58.890625 C 24.582031 -57.648438 25.015625 -56.367188 25.015625 -55.046875 C 25.398438 -55.585938 25.960938 -56.25 26.703125 -57.03125 C 27.441406 -57.8125 29.019531 -58.863281 31.4375 -60.1875 C 33.851562 -61.507812 35.972656 -62.171875 37.796875 -62.171875 C 39.628906 -62.171875 41.171875 -62.070312 42.421875 -61.875 C 43.671875 -61.675781 45.035156 -61.34375 46.515625 -60.875 Z M 46.515625 -60.875 "/></g></g></g><g fill="#121212" fill-opacity="1"><g transform="translate(294.006187, 229.878263)"><g><path d="M 64.03125 -38.15625 C 64.03125 -33.363281 62.84375 -29.816406 60.46875 -27.515625 C 58.09375 -25.222656 55.46875 -24.078125 52.59375 -24.078125 L 24.890625 -24.078125 C 24.890625 -21.890625 26.175781 -20.054688 28.75 -18.578125 C 31.320312 -17.097656 33.890625 -16.359375 36.453125 -16.359375 C 40.972656 -16.359375 44.519531 -16.828125 47.09375 -17.765625 L 48.375 -18.234375 C 50.25 -19.085938 51.804688 -19.515625 53.046875 -19.515625 C 55.546875 -19.515625 57.691406 -17.757812 59.484375 -14.25 C 60.492188 -12.15625 61 -10.363281 61 -8.875 C 61 -1.945312 52.703125 1.515625 36.109375 1.515625 C 30.347656 1.515625 25.222656 0.523438 20.734375 -1.453125 C 16.253906 -3.441406 12.769531 -6.070312 10.28125 -9.34375 C 5.375 -15.65625 2.921875 -22.707031 2.921875 -30.5 C 2.921875 -40.3125 6.09375 -48.160156 12.4375 -54.046875 C 18.789062 -59.929688 26.71875 -62.875 36.21875 -62.875 C 47.050781 -62.875 55 -59.054688 60.0625 -51.421875 C 62.707031 -47.367188 64.03125 -42.945312 64.03125 -38.15625 Z M 39.375 -34.703125 C 42.34375 -34.703125 43.828125 -35.953125 43.828125 -38.453125 C 43.828125 -40.242188 43.144531 -41.679688 41.78125 -42.765625 C 40.414062 -43.859375 38.46875 -44.40625 35.9375 -44.40625 C 33.40625 -44.40625 30.890625 -43.375 28.390625 -41.3125 C 25.898438 -39.25 24.65625 -37.046875 24.65625 -34.703125 Z M 39.375 -34.703125 "/></g></g></g></svg>