<svg width="45" height="40" viewBox="0 0 45 40" fill="none" xmlns="http://www.w3.org/2000/svg">
<path d="M28.0537 1.54735C24.3834 3.51281 22.8382 7.71873 22.8382 7.71873C22.8382 7.71873 21.0997 3.92095 17.6227 1.54735C14.0244 -0.909072 7.07801 -0.329052 3.71468 2.49682C-1.93538 7.24398 -0.852843 16.9901 5.01857 22.9099C10.6687 28.6066 22.4035 40 22.4035 40C22.4035 40 33.7037 29.0814 39.7885 22.9099C45.2122 17.409 47.5545 6.94803 41.0923 2.49682C37.0724 -0.272135 32.3209 -0.737776 28.0537 1.54735Z" fill="#626262"/>
<ellipse cx="12.604" cy="12.8176" rx="3.04237" ry="3.32307" fill="#F1F1F1"/>
<path d="M35.6392 12.8176C35.6392 14.6529 34.2771 16.1406 32.5968 16.1406C30.9166 16.1406 29.5544 14.6529 29.5544 12.8176C29.5544 10.9823 30.9166 9.49451 32.5968 9.49451C34.2771 9.49451 35.6392 10.9823 35.6392 12.8176Z" fill="#F1F1F1"/>
<path d="M30.4237 23.3648C25.1739 25.2135 20.4588 25.2518 15.6465 22.7867C15.6465 22.7867 19.2078 30.2078 22.0499 30.3774C25.7178 30.5964 30.4237 23.3648 30.4237 23.3648Z" fill="#F1F1F1"/>
</svg>
